<svg xmlns="http://www.w3.org/2000/svg" width="4500" height="4500" viewBox="0 0 4500 4500"><g fill="none" fill-rule="evenodd"><g stroke="#FCD61D" stroke-width="30" transform="translate(1513.457 2429.348)"><ellipse cx="831.543" cy="947.152" rx="114" ry="93.5" transform="rotate(-3 831.543 947.152)"/><path d="M669.417748,5.43329389 C1231.6974,-70.5025717 734.200262,673.056626 938.905111,767.131208 C1143.60996,861.205791 1362.6154,11.341989 1617.59125,532.652672 C1872.56711,1053.96335 950.206725,771.607035 1033.11149,997.387639 C1116.01626,1223.16824 1801.65845,1010.46489 1572.28562,1435.03388 C1342.91279,1859.60287 1163.88895,1103.92287 938.905111,1214.07542 C817.912959,1273.31344 841.710667,1466.64423 807.085244,1609.82776 C777.324998,1732.89273 655.203906,1861.11697 457.205413,1752.25525 C1.8391727,1501.88996 846.904704,1249.27422 647.976962,1062.25458 C449.049219,875.234936 27.7537268,1478.31018 1.07693881,896.680266 C-25.5998492,315.05035 450.660887,955.178308 615.760086,809.363585 C780.859286,663.548862 107.1381,81.3691595 669.417748,5.43329389 Z"/></g><g stroke="#6625F2" stroke-width="30" transform="rotate(35 562.793 2316.291)"><ellipse cx="414.564" cy="472.318" rx="49.333" ry="39.109" transform="rotate(-3 414.564 472.318)"/><path d="M333.841992,2.70852662 C614.253676,-35.1459163 366.149357,335.522396 468.236693,382.419088 C570.324029,429.315781 679.543141,5.65404332 806.70088,265.53026 C933.858619,525.406477 473.872864,384.650313 515.217889,497.203174 C556.562913,609.756035 898.496113,503.722255 784.106731,715.372211 C669.717349,927.022166 580.437264,550.311566 468.236693,605.223217 C407.897299,634.753688 419.765336,731.130143 402.497463,802.507911 C387.655879,863.856472 326.753477,927.776953 228.010635,873.508794 C0.917204661,748.70033 422.355628,622.770006 323.149364,529.539696 C223.9431,436.309386 13.8409229,736.945683 0.537074791,447 C-12.7667733,157.054317 224.746847,476.161593 307.082647,403.472159 C389.418446,330.782724 53.4303083,40.5629695 333.841992,2.70852662 Z"/></g><g stroke="#5EF74D" stroke-width="30" transform="rotate(35 804.114 5728.434)"><ellipse cx="772.147" cy="879.091" rx="104.819" ry="85.778" transform="rotate(-3 772.147 879.09)"/><path d="M621.775676,5.0444036 C1144.03821,-65.4563206 681.947656,624.882315 872.083781,712.22347 C1062.21991,799.564625 1265.63885,10.5301814 1502.46823,494.527833 C1739.2976,978.525485 882.581065,716.378938 959.585549,925.9992 C1036.59003,1135.61946 1673.43546,938.140442 1460.38696,1332.32073 C1247.33846,1726.50101 1081.05565,1024.90912 872.083781,1127.17747 C759.70257,1182.17549 781.806608,1361.66855 749.645456,1494.60366 C722.00323,1608.86021 608.573425,1727.90674 424.66637,1626.83685 C1.70827985,1394.39155 786.630989,1159.85689 601.860818,986.223259 C417.090647,812.589628 25.7785102,1372.49951 1.0002937,832.5 C-23.7779228,292.500489 418.587614,886.81102 571.936799,751.433047 C725.285985,616.055074 99.5131436,75.5451278 621.775676,5.0444036 Z"/></g><g stroke="#EF2643" stroke-width="30" transform="rotate(-69 1927.01 1208.061)"><ellipse cx="592.722" cy="675.407" rx="76.96" ry="62.346" transform="rotate(-3 592.722 675.407)"/><path d="M477.204778,3.8719206 C878.034506,-50.2421488 523.385993,479.639399 669.313005,546.679636 C815.240018,613.719874 971.361426,8.08262569 1153.1249,379.583526 C1334.88838,751.084426 677.369535,549.869239 736.469479,710.766954 C795.569423,871.664668 1284.34004,720.086177 1120.82808,1022.64618 C957.316115,1325.20618 829.696209,786.687003 669.313005,865.184867 C583.061881,907.399567 600.026445,1045.17262 575.343177,1147.2093 C554.128127,1234.90892 467.07222,1326.28517 325.925938,1248.7072 C1.31108266,1070.28973 603.729095,890.268533 461.920382,756.992988 C320.111669,623.717444 19.7846727,1053.48611 0.767712458,639 C-18.2492477,224.513889 321.260572,680.687378 438.954085,576.775636 C556.647598,472.863894 76.3750487,57.98599 477.204778,3.8719206 Z"/></g></g></svg>